<svg xmlns="http://www.w3.org/2000/svg" width="600" height="600"><g className="icon-svg-long" stroke="black" fill="transparent" stroke-width="2"> <path fill="none" stroke-width="4" stroke="rgb(0,176,80)" d="M 204 178 Q 332 108 422 215Q 489 313 413 414Q 336 494 228 452Q 113 387 144 258"/><path fill="none" stroke-width="4" stroke="rgb(0,176,80)" d="M 169 143 Q 315 53 440 161Q 508 229 497 342"/><path fill="none" stroke-width="4" stroke="rgb(0,176,80)" d="M 442 455 Q 329 554 195 491Q 71 413 92 268Q 107 213 135 178"/><path fill="none" stroke-width="4" stroke="rgb(0,176,80)" d="M 497 342 L 497 342 L 497 521.6000061035156 L 442 455 " /><path fill="none" stroke-width="4" stroke="rgb(0,176,80)" d="M 169 143 L 169 143 L 204 178 " /><path fill="none" stroke-width="4" stroke="rgb(0,176,80)" d="M 135 178 L 135 178 L 300 341 L 300 191.60000610351562 L 348.75 191.60000610351562 L 348.75 410.6000061035156 L 301.75 410.6000061035156 L 144 258 " /></g></svg>