<svg xmlns="http://www.w3.org/2000/svg" width="600" height="500"><g stroke="black" fill="transparent" stroke-width="2"> <path stroke-width="2" stroke="#20f08d" d="" /><circle stroke-width="3" stroke="#20f08d" cx="475.1499938964844" cy="334.26666259765625" r="94.57801012920498" /><circle stroke-width="3" stroke="#20f08d" cx="76.14999389648438" cy="349.26666259765625" r="86.6083136886985" /><circle stroke-width="2" stroke="#20f08d" cx="478.1499938964844" cy="339.26666259765625" r="73.348483283569" /><circle stroke-width="2" stroke="#20f08d" cx="76.14999389648438" cy="349.26666259765625" r="68.5054742338158" /><path stroke-width="4" stroke="#20f08d" d="M 197.14999389648438 160.26666259765625 L 197.14999389648438 160.26666259765625 L 181.14999389648438 193.26666259765625 L 248.14999389648438 241.26666259765625 L 363.1499938964844 234.26666259765625 L 335.1499938964844 189.26666259765625 L 241.14999389648438 155.26666259765625 Z" /><path stroke-width="2" stroke="#20f08d" d="M 363.1499938964844 234.26666259765625 L 363.1499938964844 234.26666259765625 L 443.1499938964844 232.26666259765625 L 537.1499938964844 206.26666259765625 L 557.1499938964844 167.26666259765625 L 534.1499938964844 153.26666259765625 L 491.1499938964844 172.26666259765625 L 442.1499938964844 176.26666259765625 L 395.1499938964844 192.26666259765625 L 335.1499938964844 189.26666259765625 Z" /><path stroke-width="10" stroke="#20f08d" d="M 76.14999389648438 349.26666259765625 L 76.14999389648438 349.26666259765625 L 173.14999389648438 144.26666259765625 " /><path stroke-width="5" stroke="#20f08d" d="M 181.14999389648438 165.26666259765625 L 181.14999389648438 165.26666259765625 L 166.14999389648438 205.26666259765625 L 239.14999389648438 335.26666259765625 L 259.1499938964844 349.26666259765625 L 306.1499938964844 355.26666259765625 " /><path stroke-width="10" stroke="#20f08d" d="M 478.1499938964844 339.26666259765625 L 478.1499938964844 339.26666259765625 L 333.1499938964844 322.26666259765625 " /><path stroke-width="8" stroke="#20f08d" d="M 475.1499938964844 334.26666259765625 L 475.1499938964844 334.26666259765625 L 443.1499938964844 232.26666259765625 " /><path stroke-width="5" stroke="#20f08d" d="M 443.1499938964844 232.26666259765625 L 443.1499938964844 232.26666259765625 L 547.1499938964844 212.26666259765625 " /><path stroke-width="5" stroke="#20f08d" d="M 547.1499938964844 212.26666259765625 Q 586.1499938964844 132.26666259765625 547.1499938964844 157.26666259765625"/><path stroke-width="2" stroke="#20f08d" d="M 178.14999389648438 340.26666259765625 Q 137.14999389648438 215.26666259765625 19.149993896484375 265.26666259765625"/><path stroke-width="2" stroke="#20f08d" d="M 19.149993896484375 265.26666259765625 Q 77.14999389648438 254.26666259765625 97.14999389648438 297.26666259765625"/><path stroke-width="2" stroke="#20f08d" d="M 102.14999389648438 297.26666259765625 Q 146.14999389648438 283.26666259765625 178.14999389648438 340.26666259765625"/><path stroke-width="2" stroke="#000" d="M 0 0 Q 0 0 0 0"/><path stroke-width="2" stroke="#20f08d" d="M 415.1499938964844 246.26666259765625 L 415.1499938964844 246.26666259765625 L 351.1499938964844 241.26666259765625 L 304.1499938964844 244.26666259765625 L 307.1499938964844 272.26666259765625 L 331.1499938964844 294.26666259765625 L 357.1499938964844 291.26666259765625 " /><path stroke-width="2" stroke="#20f08d" d="M 357.1499938964844 291.26666259765625 Q 379.1499938964844 272.26666259765625 405.1499938964844 265.26666259765625"/><path stroke-width="2" stroke="#20f08d" d="M 405.1499938964844 265.26666259765625 L 405.1499938964844 265.26666259765625 L 415.1499938964844 246.26666259765625 " /><circle stroke-width="2" stroke="#20f08d" cx="262.1499938964844" cy="321.26666259765625" r="19.72308292331602" /><path stroke-width="2" stroke="#20f08d" d="M 481.1499938964844 227.26666259765625 Q 535.1499938964844 226.26666259765625 571.1499938964844 270.26666259765625"/><path stroke-width="2" stroke="#20f08d" d="M 582.1499938964844 267.26666259765625 Q 565.1499938964844 228.26666259765625 520.1499938964844 217.26666259765625"/><path stroke-width="2" stroke="#20f08d" d="M 571.1499938964844 270.26666259765625 L 571.1499938964844 270.26666259765625 L 582.1499938964844 267.26666259765625 " /><circle stroke-width="2" stroke="#20f08d" cx="478.1499938964844" cy="339.26666259765625" r="23.600847442411894" /><path stroke-width="2" stroke="#20f08d" d="M 334.1499938964844 305.26666259765625 L 334.1499938964844 305.26666259765625 L 479.1499938964844 316.26666259765625 " /><path stroke-width="2" stroke="#20f08d" d="M 480.1499938964844 362.26666259765625 L 480.1499938964844 362.26666259765625 L 324.1499938964844 334.26666259765625 " /><path stroke-width="2" stroke="#20f08d" d="M 261.1499938964844 300.26666259765625 L 261.1499938964844 300.26666259765625 L 331.1499938964844 294.26666259765625 L 306.1499938964844 355.26666259765625 L 265.1499938964844 339.26666259765625 " /><circle stroke-width="2" stroke="#20f08d" cx="320.1499938964844" cy="349.26666259765625" r="8.94427190999916" /><path stroke-width="2" stroke="#20f08d" d="M 181.14999389648438 193.26666259765625 L 181.14999389648438 193.26666259765625 L 173.14999389648438 214.26666259765625 L 202.14999389648438 241.26666259765625 L 238.14999389648438 235.26666259765625 Z" /><path stroke-width="2" stroke="#20f08d" d="M 586.1499938964844 189.26666259765625 L 586.1499938964844 189.26666259765625 L 570.1499938964844 189.26666259765625 L 554.1499938964844 209.26666259765625 L 520.1499938964844 217.26666259765625 L 553.1499938964844 229.26666259765625 L 565.1499938964844 228.26666259765625 L 572.1499938964844 208.26666259765625 L 580.1499938964844 208.26666259765625 Z" /><ellipse stroke-width="2" stroke="#000" cx="0" cy="0" rx="0" ry="0" /><path stroke-width="2" stroke="#20f08d" d="M 586.1499938964844 189.26666259765625 L 586.1499938964844 189.26666259765625 L 592.1499938964844 191.26666259765625 L 594.1499938964844 205.26666259765625 L 580.1499938964844 208.26666259765625 Z" /><ellipse stroke-width="2" stroke="#20f08d" cx="122.14999389648438" cy="173.26666259765625" rx="13.601470508735444" ry="9.055385138137417" /><path stroke-width="2" stroke="#20f08d" d="M 155.14999389648438 161.26666259765625 L 155.14999389648438 161.26666259765625 L 104.14999389648438 161.26666259765625 L 103.14999389648438 175.26666259765625 L 142.14999389648438 185.26666259765625 Z" /><path stroke-width="2" stroke="#20f08d" d="M 102.14999389648438 135.26666259765625 Q 88.14999389648438 169.26666259765625 107.14999389648438 196.26666259765625"/><path stroke-width="2" stroke="#20f08d" d="M 102.14999389648438 135.26666259765625 Q 127.14999389648438 138.26666259765625 136.14999389648438 161.26666259765625"/><path stroke-width="2" stroke="#20f08d" d="M 132.14999389648438 183.26666259765625 Q 126.14999389648438 199.26666259765625 107.14999389648438 196.26666259765625"/><path stroke-width="2" stroke="#20f08d" d="M 102.14999389648438 135.26666259765625 Q 100.14999389648438 170.26666259765625 107.14999389648438 196.26666259765625"/><path stroke-width="5" stroke="#20f08d" d="M 168.14999389648438 126.26666259765625 Q 182.14999389648438 100.26666259765625 198.14999389648438 105.26666259765625"/><path stroke-width="7" stroke="#20f08d" d="M 198.14999389648438 105.26666259765625 L 198.14999389648438 105.26666259765625 L 238.14999389648438 118.26666259765625 " /><path stroke-width="2" stroke="#20f08d" d="M 132.14999389648438 107.26666259765625 Q 139.14999389648438 126.26666259765625 164.14999389648438 129.26666259765625"/><path stroke-width="2" stroke="#20f08d" d="M 121.14999389648438 124.26666259765625 Q 124.14999389648438 146.26666259765625 152.14999389648438 149.26666259765625"/><path stroke-width="2" stroke="#20f08d" d="M 121.14999389648438 124.26666259765625 L 121.14999389648438 124.26666259765625 L 132.14999389648438 107.26666259765625 " /><path stroke-width="2" stroke="#20f08d" d="M 152.14999389648438 149.26666259765625 L 152.14999389648438 149.26666259765625 L 164.14999389648438 129.26666259765625 " /><path stroke-width="2" stroke="#20f08d" d="M 132.14999389648438 107.26666259765625 Q 154.14999389648438 102.26666259765625 164.14999389648438 129.26666259765625"/><path stroke-width="2" stroke="#20f08d" d="M 206.14999389648438 250.26666259765625 L 206.14999389648438 250.26666259765625 L 257.1499938964844 246.26666259765625 L 267.1499938964844 258.26666259765625 L 217.14999389648438 279.26666259765625 Z" /><path stroke-width="2" stroke="#20f08d" d="M 222.14999389648438 284.26666259765625 L 222.14999389648438 284.26666259765625 L 267.1499938964844 264.26666259765625 " /><path stroke-width="2" stroke="#20f08d" d="M 226.14999389648438 289.26666259765625 L 226.14999389648438 289.26666259765625 L 267.1499938964844 272.26666259765625 " /><path stroke-width="2" stroke="#20f08d" d="M 235.14999389648438 292.26666259765625 L 235.14999389648438 292.26666259765625 L 263.1499938964844 280.26666259765625 " /><path stroke-width="2" stroke="#20f08d" d="" /><path stroke-width="2" stroke="#20f08d" d="" /><path stroke-width="2" stroke="#000" d="M 0 0 Q 0 0 0 0"/><path stroke-width="20" stroke="#20f08d" d="M 443.1499938964844 232.26666259765625 L 443.1499938964844 232.26666259765625 L 461.1499938964844 287.26666259765625 " /></g></svg>